<?xml version="1.0"?>
<svg xmlns="http://www.w3.org/2000/svg" viewBox="0 0 64 64" width="512" height="512"><g id="cloud_computing" data-name="cloud computing"><path d="M28.03,16.6c.28-2.09,2.56-5.33,4.46-5.57a3.973,3.973,0,0,1,3.54,1.39,5.994,5.994,0,0,1,4.62-5.26A5.427,5.427,0,0,1,42,7a5.965,5.965,0,0,1,4.29,1.81,4.99,4.99,0,0,1,7.35,6.04,3.984,3.984,0,0,1,4.42-1.71,3.935,3.935,0,0,1,2.83,2.89A4.006,4.006,0,0,1,57,21H34.87a3.991,3.991,0,0,0-7.23-3.15,5.311,5.311,0,0,0,.33-1.26Z" style="fill:#2488ff"/><circle cx="58" cy="53" r="3" style="fill:#ffeb99"/><path d="M43,53v5c0,1.66-4.92,3-11,3s-11-1.34-11-3V52c0,1.66,4.92,3,11,3s11-1.34,11-3Z" style="fill:#ff7956"/><path d="M43,47v5c0,1.66-4.92,3-11,3s-11-1.34-11-3V46c0,1.66,4.92,3,11,3s11-1.34,11-3Z" style="fill:#ffeb99"/><path d="M43,40v6c0,1.66-4.92,3-11,3s-11-1.34-11-3V40c0,1.66,4.92,3,11,3S43,41.66,43,40Z" style="fill:#ff7956"/><path d="M43,34v6c0,1.66-4.92,3-11,3s-11-1.34-11-3V34c0,1.66,4.92,3,11,3S43,35.66,43,34Z" style="fill:#ffeb99"/><ellipse cx="32" cy="34" rx="11" ry="3" style="fill:#ff7956"/><path d="M40.65,7.16a5.994,5.994,0,0,0-4.62,5.26,3.973,3.973,0,0,0-3.54-1.39c-1.9.24-4.18,3.48-4.46,5.57l-.06-.01a4.987,4.987,0,0,0-7.68-4.78A5.965,5.965,0,0,0,16,10a4.075,4.075,0,0,1,3.49-2.97,3.973,3.973,0,0,1,3.54,1.39A6,6,0,0,1,33.29,4.81a4.972,4.972,0,0,1,7.36,2.35Z" style="fill:#ffeb99"/><path d="M34.89,19.03A4.025,4.025,0,0,1,31,24H7a4,4,0,0,1-4-4V18.17a4.119,4.119,0,0,1,3.49-4.14,3.973,3.973,0,0,1,3.54,1.39,6,6,0,0,1,10.26-3.61,5,5,0,0,1,7.68,4.78,5.311,5.311,0,0,1-.33,1.26,3.984,3.984,0,0,1,4.42-1.71A3.935,3.935,0,0,1,34.89,19.03Z" style="fill:#57a4ff"/><circle cx="6" cy="53" r="3" style="fill:#ffeb99"/><path d="M58,49a4,4,0,0,0-3.858,3H44V48h7a3,3,0,0,0,3-3V22h3a5,5,0,0,0,1.312-9.828,5.058,5.058,0,0,0-3.341.267,6.267,6.267,0,0,0-.378-1.609,5.968,5.968,0,0,0-8.159-3.246A6.932,6.932,0,0,0,42,6a7.091,7.091,0,0,0-.783.045,5.956,5.956,0,0,0-7.783-2.461,7,7,0,0,0-11.027,3.05,4.936,4.936,0,0,0-3.041-.6,5.138,5.138,0,0,0-4.1,3.02,6.95,6.95,0,0,0-5.856,4.574,4.977,4.977,0,0,0-3.047-.592A5.1,5.1,0,0,0,2,18.166V20a5.006,5.006,0,0,0,5,5h3V45a3,3,0,0,0,3,3h7v4H9.858a4,4,0,1,0,0,2H20v4c0,3.157,7.543,4,12,4s12-.843,12-4V54H54.142A3.993,3.993,0,1,0,58,49ZM6,55a2,2,0,1,1,2-2A2,2,0,0,1,6,55ZM22,34.033c.3-.715,3.98-2.033,10-2.033,5.927,0,9.583,1.278,9.986,2-.4.722-4.059,2-9.986,2-6.02,0-9.695-1.318-10-1.95Zm0,2.345C24.547,37.61,28.979,38,32,38s7.453-.39,10-1.622v3.589C41.7,40.682,38.02,42,32,42c-6.044,0-9.727-1.329-10-2Zm0,6C24.547,43.61,28.979,44,32,44s7.453-.39,10-1.622v3.589C41.7,46.682,38.02,48,32,48c-6.044,0-9.727-1.329-10-2Zm0,6C24.547,49.61,28.979,50,32,50s7.453-.39,10-1.622v3.589C41.7,52.682,38.02,54,32,54c-6.044,0-9.727-1.329-10-2ZM45.574,9.507a1,1,0,0,0,1.262.14,3.977,3.977,0,0,1,3.137-.536,4.024,4.024,0,0,1,2.751,2.432,3.951,3.951,0,0,1-.013,2.936,1,1,0,0,0,1.772.909,2.988,2.988,0,0,1,3.332-1.279,2.924,2.924,0,0,1,2.1,2.151A3.007,3.007,0,0,1,57,20H36a5.154,5.154,0,0,0-.138-1.2,4.956,4.956,0,0,0-3.545-3.627,5.059,5.059,0,0,0-2.813.071c.738-1.522,2.137-3.094,3.116-3.219a2.952,2.952,0,0,1,2.655,1.049,1,1,0,0,0,1.754-.555A4.989,4.989,0,0,1,40.9,8.129,4.379,4.379,0,0,1,42,8,4.95,4.95,0,0,1,45.574,9.507ZM19.617,8.022a2.952,2.952,0,0,1,2.654,1.049,1,1,0,0,0,1.754-.556,5,5,0,0,1,8.549-3.008,1,1,0,0,0,1.262.14,3.967,3.967,0,0,1,3.136-.536,4.017,4.017,0,0,1,2.224,1.5,6.969,6.969,0,0,0-3.785,4.031,4.93,4.93,0,0,0-3.048-.6c-1.441.185-2.974,1.589-4.031,3.231a5.965,5.965,0,0,0-7.9-2.685,6.9,6.9,0,0,0-2.926-1.4A3.224,3.224,0,0,1,19.617,8.022ZM4,20V18.166a3.1,3.1,0,0,1,2.612-3.142A3.178,3.178,0,0,1,7,15a2.958,2.958,0,0,1,2.27,1.064,1,1,0,0,0,1.755-.552,5,5,0,0,1,8.55-3,1,1,0,0,0,1.259.139,3.977,3.977,0,0,1,5.89,1.9,3.9,3.9,0,0,1-.014,2.924,1,1,0,0,0,1.77.911,3.005,3.005,0,0,1,3.333-1.282h0a2.938,2.938,0,0,1,2.1,2.15A3.008,3.008,0,0,1,31,23H7A3,3,0,0,1,4,20Zm9,26a1,1,0,0,1-1-1V25H31a4.964,4.964,0,0,0,4.577-3H52V45a1,1,0,0,1-1,1H44V34c0-3.157-7.543-4-12-4s-12,.843-12,4V46ZM32,60c-6.044,0-9.727-1.329-10-2V54.378C24.547,55.61,28.979,56,32,56s7.453-.39,10-1.622v3.589C41.7,58.682,38.02,60,32,60Zm26-5a2,2,0,1,1,2-2A2,2,0,0,1,58,55Z"/></g></svg>
