<svg height="512" viewBox="0 0 58 58" width="512" xmlns="http://www.w3.org/2000/svg"><g id="Page-1" fill="none" fill-rule="evenodd"><g id="027---Good-User-Experience" fill-rule="nonzero"><path id="Shape" d="m35.63 54h-32.63c-1.65685425 0-3-1.3431458-3-3v-48c0-1.65685425 1.34314575-3 3-3h42c1.6568542 0 3 1.34314575 3 3v29.35z" fill="#ecf0f1"/><path id="Shape" d="m48 3v9h-48v-9c0-1.65685425 1.34314575-3 3-3h42c1.6568542 0 3 1.34314575 3 3z" fill="#3b97d3"/><circle id="Oval" cx="45" cy="45" fill="#f0c419" r="13"/><circle id="Oval" cx="6" cy="6" fill="#2980ba" r="2"/><circle id="Oval" cx="14" cy="6" fill="#f0c419" r="2"/><rect id="Rectangle-path" fill="#285680" height="4" rx="2" width="14" x="30" y="4"/><path id="Shape" d="m19 26c-2.209139 0-4-1.790861-4-4v-5c0-.5522847.4477153-1 1-1s1 .4477153 1 1v5c0 1.1045695.8954305 2 2 2s2-.8954305 2-2v-5c0-.5522847.4477153-1 1-1s1 .4477153 1 1v5c0 2.209139-1.790861 4-4 4z" fill="#ff5364"/><path id="Shape" d="m30.25 21 2.55-3.4c.3313708-.4418278.2418278-1.0686292-.2-1.4s-1.0686292-.2418278-1.4.2l-2.2 2.933-2.2-2.933c-.2143594-.2858125-.5649147-.4355547-.9196152-.3928203-.3547006.0427344-.6596589.2714531-.8.6-.1403412.3285469-.0947442.7070078.1196152.9928203l2.55 3.4-2.55 3.4c-.2143594.2858125-.2599564.6642734-.1196152.9928203.1403411.3285469.4452994.5572656.8.6.3547005.0427344.7052558-.1070078.9196152-.3928203l2.2-2.933 2.2 2.933c.2143594.2858125.5649147.4355547.9196152.3928203.3547006-.0427344.6596589-.2714531.8-.6.1403412-.3285469.0947442-.7070078-.1196152-.9928203z" fill="#ff5364"/><path id="Shape" d="m16 32v6c-.0054706 1.1022956-.8977044 1.9945294-2 2h-8c-1.10320187-.0032948-1.9967052-.8967981-2-2v-6c.00547055-1.1022956.89770443-1.9945294 2-2h8c1.1032019.0032948 1.9967052.8967981 2 2z" fill="#3b97d3"/><path id="Shape" d="m15.87 38.71c-.2645648.681423-.8763132 1.1669984-1.6 1.27l-10.14-8.69c.26456476-.681423.87631325-1.1669984 1.6-1.27z" fill="#2980ba"/><g fill="#35495e"><path id="Shape" d="m36 31h-16c-.5522847 0-1-.4477153-1-1s.4477153-1 1-1h16c.5522847 0 1 .4477153 1 1s-.4477153 1-1 1z"/><path id="Shape" d="m28 45h-24c-.55228475 0-1-.4477153-1-1s.44771525-1 1-1h24c.5522847 0 1 .4477153 1 1s-.4477153 1-1 1z"/><path id="Shape" d="m22 49h-18c-.55228475 0-1-.4477153-1-1s.44771525-1 1-1h18c.5522847 0 1 .4477153 1 1s-.4477153 1-1 1z"/><path id="Shape" d="m31 36h-11c-.5522847 0-1-.4477153-1-1s.4477153-1 1-1h11c.5522847 0 1 .4477153 1 1s-.4477153 1-1 1z"/><path id="Shape" d="m29 41h-9c-.5522847 0-1-.4477153-1-1s.4477153-1 1-1h9c.5522847 0 1 .4477153 1 1s-.4477153 1-1 1z"/></g><path id="Shape" d="m43 42c.0061167 1.2713341-.798164 2.40537-2 2.82-.6450702.2399802-1.3549298.2399802-2 0-1.4393979-.5089108-2.2670245-2.0176639-1.9226904-3.505041.3443342-1.487377 1.7507923-2.47893 3.2673957-2.3035139 1.5166033.1754161 2.6595812 1.4618466 2.6552947 2.9885549z" fill="#ecf0f1"/><path id="Shape" d="m53 42c.0061167 1.2713341-.798164 2.40537-2 2.82-.6450702.2399802-1.3549298.2399802-2 0-1.4393979-.5089108-2.2670245-2.0176639-1.9226904-3.505041.3443342-1.487377 1.7507923-2.47893 3.2673957-2.3035139 1.5166033.1754161 2.6595812 1.4618466 2.6552947 2.9885549z" fill="#ecf0f1"/><path id="Shape" d="m42 49h6c.5522847 0 1 .4477153 1 1 0 2.209139-1.790861 4-4 4s-4-1.790861-4-4c0-.5522847.4477153-1 1-1z" fill="#802d40"/><path id="Shape" d="m51 43v1.82c-.6450702.2399802-1.3549298.2399802-2 0v-1.82c0-.5522847.4477153-1 1-1s1 .4477153 1 1z" fill="#3f5c6c"/><path id="Shape" d="m41 43v1.82c-.6450702.2399802-1.3549298.2399802-2 0v-1.82c0-.5522847.4477153-1 1-1s1 .4477153 1 1z" fill="#3f5c6c"/></g></g></svg>