<svg height="512pt" viewBox="0 -33 512 512" width="512pt" xmlns="http://www.w3.org/2000/svg"><path d="m512 10.300781v425.515625c0 5.6875-4.613281 10.304688-10.300781 10.304688h-491.398438c-5.6875 0-10.300781-4.617188-10.300781-10.304688v-425.515625c0-5.6875 4.613281-10.300781 10.300781-10.300781h491.398438c5.6875 0 10.300781 4.613281 10.300781 10.300781zm0 0" fill="#e3f4ff"/><path d="m307.507812 319.128906h126.988282v126.988282h-126.988282zm0 0" fill="#fd9e28"/><path d="m307.507812 192.140625h126.988282v126.988281h-126.988282zm0 0" fill="#32dfb7"/><path d="m512 10.300781v425.515625c0 5.6875-4.613281 10.304688-10.300781 10.304688h-30.566407c5.6875 0 10.300782-4.617188 10.300782-10.304688v-425.515625c0-5.6875-4.613282-10.300781-10.300782-10.300781h30.566407c5.6875 0 10.300781 4.613281 10.300781 10.300781zm0 0" fill="#bddff4"/><path d="m184.917969 65.488281h327.082031v126.652344h-327.082031zm0 0" fill="#fd6096"/><path d="m481.433594 65.488281h30.566406v126.652344h-30.566406zm0 0" fill="#fc3e81"/><path d="m184.917969 65.488281v380.632813h-174.617188c-5.6875 0-10.300781-4.617188-10.300781-10.304688v-370.328125zm0 0" fill="#27e6fc"/><path d="m512 10.300781v55.1875h-512v-55.1875c0-5.6875 4.613281-10.300781 10.300781-10.300781h491.398438c5.6875 0 10.300781 4.613281 10.300781 10.300781zm0 0" fill="#618baa"/><path d="m512 10.300781v55.1875h-30.566406v-55.1875c0-5.6875-4.613282-10.300781-10.300782-10.300781h30.566407c5.6875 0 10.300781 4.613281 10.300781 10.300781zm0 0" fill="#4e7693"/><path d="m150.292969 0v65.488281h-150.292969v-55.1875c0-5.6875 4.613281-10.300781 10.300781-10.300781zm0 0" fill="#a7c7d3"/><path d="m47.878906 40.390625c-.015625 0-.023437 0-.039062 0h-.109375c-4.265625-.023437-7.707031-3.496094-7.691407-7.761719.023438-4.257812 3.476563-7.691406 7.726563-7.691406h.039063.105468c4.269532.019531 7.710938 3.496094 7.691406 7.761719-.019531 4.253906-3.472656 7.691406-7.722656 7.691406zm0 0" fill="#618baa"/><path d="m76.21875 40.472656h-.109375c-4.265625 0-7.722656-3.460937-7.722656-7.726562s3.457031-7.726563 7.722656-7.726563h.109375c4.269531 0 7.726562 3.460938 7.726562 7.726563s-3.457031 7.726562-7.726562 7.726562zm0 0" fill="#618baa"/><path d="m104.5625 40.554688c-.011719 0-.023438 0-.035156 0h-.109375c-4.265625-.019532-7.710938-3.496094-7.691407-7.761719.019532-4.257813 3.476563-7.691407 7.726563-7.691407h.035156.109375c4.265625.019532 7.710938 3.496094 7.691406 7.761719-.019531 4.253907-3.476562 7.691407-7.726562 7.691407zm0 0" fill="#618baa"/><g fill="#93c0d1"><path d="m218.492188 232.707031h-.105469c-4.269531 0-7.726563-3.460937-7.726563-7.726562s3.457032-7.726563 7.726563-7.726563h.105469c4.269531 0 7.726562 3.460938 7.726562 7.726563s-3.457031 7.726562-7.726562 7.726562zm0 0"/><path d="m246.839844 232.789062c-.015625 0-.027344 0-.039063 0h-.109375c-4.265625-.019531-7.710937-3.496093-7.691406-7.761718.019531-4.257813 3.476562-7.691406 7.726562-7.691406h.035157.109375c4.269531.019531 7.710937 3.496093 7.691406 7.761718-.019531 4.253906-3.472656 7.691406-7.722656 7.691406zm0 0"/><path d="m275.179688 232.871094c-.011719 0-.023438 0-.035157 0h-.109375c-4.265625-.019532-7.710937-3.496094-7.691406-7.761719.019531-4.253906 3.476562-7.691406 7.726562-7.691406h.035157.109375c4.265625.019531 7.710937 3.496093 7.691406 7.761719-.019531 4.253906-3.476562 7.691406-7.726562 7.691406zm0 0"/><path d="m218.496094 269.300781c-.015625 0-.027344 0-.039063 0h-.109375c-4.265625-.019531-7.707031-3.496093-7.691406-7.761719.023438-4.257812 3.476562-7.691406 7.726562-7.691406h.039063.105469c4.269531.019532 7.710937 3.496094 7.691406 7.761719-.019531 4.257813-3.472656 7.691406-7.722656 7.691406zm0 0"/><path d="m246.839844 269.382812c-.015625 0-.027344 0-.039063 0h-.109375c-4.265625-.019531-7.710937-3.492187-7.691406-7.761718.019531-4.253906 3.476562-7.691406 7.726562-7.691406h.035157.109375c4.269531.019531 7.710937 3.496093 7.691406 7.761718-.019531 4.257813-3.472656 7.691406-7.722656 7.691406zm0 0"/><path d="m275.179688 269.464844c-.011719 0-.023438 0-.035157 0h-.109375c-4.265625-.019532-7.710937-3.492188-7.691406-7.761719.019531-4.253906 3.476562-7.691406 7.726562-7.691406h.035157l.109375.003906c4.265625.019531 7.710937 3.492187 7.691406 7.761719-.019531 4.253906-3.476562 7.6875-7.726562 7.6875zm0 0"/><path d="m218.496094 305.898438c-.015625 0-.027344 0-.039063 0l-.109375-.003907c-4.265625-.019531-7.707031-3.492187-7.691406-7.761719.023438-4.253906 3.476562-7.691406 7.726562-7.691406h.039063l.105469.003906c4.269531.019532 7.710937 3.492188 7.691406 7.761719-.019531 4.253907-3.472656 7.691407-7.722656 7.691407zm0 0"/><path d="m246.839844 305.980469c-.015625 0-.027344 0-.039063 0h-.109375c-4.265625-.019531-7.710937-3.496094-7.691406-7.761719.019531-4.257812 3.476562-7.691406 7.726562-7.691406h.035157.109375c4.269531.019531 7.710937 3.492187 7.691406 7.761718-.019531 4.253907-3.472656 7.691407-7.722656 7.691407zm0 0"/><path d="m275.179688 306.0625h-.109376c-4.265624 0-7.726562-3.460938-7.726562-7.726562 0-4.269532 3.460938-7.726563 7.726562-7.726563h.109376c4.265624 0 7.726562 3.457031 7.726562 7.726563 0 4.265624-3.460938 7.726562-7.726562 7.726562zm0 0"/><path d="m218.496094 342.492188c-.015625 0-.027344 0-.039063 0h-.109375c-4.265625-.019532-7.707031-3.496094-7.691406-7.761719.023438-4.253907 3.476562-7.691407 7.726562-7.691407h.039063.105469c4.269531.023438 7.710937 3.496094 7.691406 7.765626-.019531 4.253906-3.472656 7.6875-7.722656 7.6875zm0 0"/><path d="m246.835938 342.574219h-.109376c-4.265624 0-7.722656-3.457031-7.722656-7.726563 0-4.265625 3.457032-7.726562 7.722656-7.726562h.109376c4.269531 0 7.726562 3.460937 7.726562 7.726562s-3.457031 7.726563-7.726562 7.726563zm0 0"/><path d="m275.179688 342.65625c-.011719 0-.023438 0-.035157 0h-.109375c-4.265625-.019531-7.710937-3.496094-7.691406-7.761719.019531-4.253906 3.476562-7.691406 7.726562-7.691406h.035157.109375c4.265625.023437 7.710937 3.496094 7.691406 7.765625-.019531 4.253906-3.476562 7.6875-7.726562 7.6875zm0 0"/><path d="m218.492188 379.089844h-.105469c-4.269531 0-7.726563-3.460938-7.726563-7.726563 0-4.269531 3.457032-7.726562 7.726563-7.726562h.105469c4.269531 0 7.726562 3.457031 7.726562 7.726562 0 4.265625-3.457031 7.726563-7.726562 7.726563zm0 0"/><path d="m246.839844 379.171875c-.015625 0-.027344 0-.039063 0l-.109375-.003906c-4.265625-.019531-7.710937-3.492188-7.691406-7.761719.019531-4.253906 3.476562-7.691406 7.726562-7.691406h.035157.109375c4.269531.019531 7.710937 3.496094 7.691406 7.761718-.019531 4.257813-3.472656 7.695313-7.722656 7.695313zm0 0"/><path d="m275.179688 379.253906c-.011719 0-.023438 0-.035157 0h-.109375c-4.265625-.023437-7.710937-3.496094-7.691406-7.765625.019531-4.253906 3.476562-7.6875 7.726562-7.6875h.035157.109375c4.265625.019531 7.710937 3.492188 7.691406 7.761719-.019531 4.253906-3.476562 7.691406-7.726562 7.691406zm0 0"/><path d="m218.496094 415.683594c-.015625 0-.027344 0-.039063 0h-.109375c-4.265625-.019532-7.707031-3.496094-7.691406-7.761719.023438-4.257813 3.476562-7.691406 7.726562-7.691406h.039063.105469c4.269531.019531 7.710937 3.496093 7.691406 7.761719-.019531 4.253906-3.472656 7.691406-7.722656 7.691406zm0 0"/><path d="m246.839844 415.765625c-.015625 0-.027344 0-.039063 0h-.109375c-4.265625-.019531-7.710937-3.496094-7.691406-7.761719.019531-4.257812 3.476562-7.691406 7.726562-7.691406h.035157.109375c4.269531.019531 7.710937 3.496094 7.691406 7.761719-.019531 4.253906-3.472656 7.691406-7.722656 7.691406zm0 0"/><path d="m275.179688 415.847656c-.011719 0-.023438 0-.035157 0h-.109375c-4.265625-.019531-7.710937-3.496094-7.691406-7.761718.019531-4.257813 3.476562-7.691407 7.726562-7.691407h.035157.109375c4.265625.019531 7.710937 3.496094 7.691406 7.761719-.019531 4.257812-3.476562 7.691406-7.726562 7.691406zm0 0"/></g><path d="m434.5 192.144531v11.742188l-116.730469 115.238281h-10.261719v-11.578125l116.886719-115.402344zm0 0" fill="#21c69c"/><path d="m135.925781 156.941406h-86.9375c-5.6875 0-10.300781-4.613281-10.300781-10.300781v-16.484375c0-5.6875 4.613281-10.300781 10.300781-10.300781h86.9375c5.691407 0 10.304688 4.613281 10.304688 10.300781v16.484375c0 5.6875-4.613281 10.300781-10.304688 10.300781zm0 0" fill="#fd6096"/><path d="m135.925781 225.285156h-86.9375c-5.6875 0-10.300781-4.609375-10.300781-10.300781v-16.480469c0-5.691406 4.613281-10.304687 10.300781-10.304687h86.9375c5.691407 0 10.304688 4.613281 10.304688 10.304687v16.480469c0 5.691406-4.613281 10.300781-10.304688 10.300781zm0 0" fill="#fd6096"/><path d="m98.460938 297.742188h-53.773438c-4.265625 0-7.722656-3.457032-7.722656-7.726563 0-4.265625 3.457031-7.726563 7.722656-7.726563h53.773438c4.265624 0 7.722656 3.460938 7.722656 7.726563 0 4.269531-3.457032 7.726563-7.722656 7.726563zm0 0" fill="#21c69c"/><path d="m98.460938 330.710938h-53.773438c-4.265625 0-7.722656-3.460938-7.722656-7.726563 0-4.269531 3.457031-7.726563 7.722656-7.726563h53.773438c4.265624 0 7.722656 3.457032 7.722656 7.726563 0 4.265625-3.457032 7.726563-7.722656 7.726563zm0 0" fill="#21c69c"/><path d="m98.460938 363.675781h-53.773438c-4.265625 0-7.722656-3.460937-7.722656-7.726562s3.457031-7.726563 7.722656-7.726563h53.773438c4.265624 0 7.722656 3.460938 7.722656 7.726563s-3.457032 7.726562-7.722656 7.726562zm0 0" fill="#21c69c"/><path d="m98.460938 396.640625h-53.773438c-4.265625 0-7.722656-3.460937-7.722656-7.726563 0-4.265624 3.457031-7.726562 7.722656-7.726562h53.773438c4.265624 0 7.722656 3.460938 7.722656 7.726562 0 4.265626-3.457032 7.726563-7.722656 7.726563zm0 0" fill="#21c69c"/></svg>